# xmcd CD database file
#
# Track frame offsets:
#	150
#	9338
#	25521
#	45155
#	66432
#	83978
#	99860
#	116542
#	133648
#	152101
#	167385
#	193041
#	212161
#	226982
#	244242
#	257759
#	274752
#	291004
#	313369
#	334123
#	357969
#	388651
#
# Disc length: 5402 seconds
#
# Revision: 0
# Processed by: cddbd v1.5.2PL0 Copyright (c) Steve Scherf et al.
# Submitted via: CDex 1.51
#
DISCID=33151816
DTITLE=Katie Melua - LIVE Opernplatz Frankfurt 15.07.2007 
DYEAR=2007
DGENRE=Jazz
TTITLE0=Introduction
TTITLE1=ThankYou, Stars
TTITLE2=Perfect Circle
TTITLE3=Blues in the Night
TTITLE4=Blame It on the Moon
TTITLE5=Halfway up the Hindu Kush
TTITLE6=Piece by Piece
TTITLE7=Belfast (Penguins and Cats)
TTITLE8=What I Miss about You
TTITLE9=Crawling up a Hill
TTITLE10=Fancy
TTITLE11=Spider's Web
TTITLE12=Call off the Search
TTITLE13=Shy Boy
TTITLE14=I Think It's Going to Rain Today
TTITLE15=I Cried for You
TTITLE16=My Aphrodisiac Is You
TTITLE17=On the Road Again
TTITLE18=Closest Thing to Crazy
TTITLE19=Nine Million Bicycles
TTITLE20=Mockingbird Song
TTITLE21=Faraway Voice
EXTD=YEAR: 2007
EXTT0=
EXTT1=
EXTT2=
EXTT3=
EXTT4=
EXTT5=
EXTT6=
EXTT7=
EXTT8=
EXTT9=
EXTT10=
EXTT11=
EXTT12=
EXTT13=
EXTT14=
EXTT15=
EXTT16=
EXTT17=
EXTT18=
EXTT19=
EXTT20=
EXTT21=
PLAYORDER=
